<?xml version="1.0"?>
<svg xmlns="http://www.w3.org/2000/svg" id="Layer_1" data-name="Layer 1" viewBox="0 0 64 64"><title>Dusk Part 3</title><path d="M30.54,25.45h0c-.23,0-1-.61-1.37-2.07s0-2.44.14-2.49c0,0,1.42-.25,1.43-.53a9.59,9.59,0,0,1,.13-1.22,4.54,4.54,0,0,0-.06-1.29,16.72,16.72,0,0,1-.1-4.06c.25-2.52,1.73-4,4-4a.79.79,0,0,0,.47-.16,9.52,9.52,0,0,1,5-1.42H41c4.78,0,8.24,2.45,9.66,6.77-.54-.06-.36.32-.75.69s-1.33.52-1,1.5a9.55,9.55,0,0,1,.71,3.21c0,.28,1.41-.22,1.43-.22a5,5,0,0,1,.14,3.23c-.39,1.45-1.13,2.07-1.36,2.07a.81.81,0,0,0-.76.56,16.22,16.22,0,0,1-3.38,6.13C49,34,60,42,60,42V53H51S39.45,36,39,36c-4.08,0-6.37-5.52-7.7-10A.79.79,0,0,0,30.54,25.45Z" style="fill:#faefde;"/><path d="M31.53,17a5.17,5.17,0,0,0,4.53-3.46c2.08.69,2.77,2.77,12.46,2.08,1-.07,1.1.27,1.38,0s-.5-1.39,0-1.34c-1.31-4-4.52-6.28-9-6.28h-.73a8.84,8.84,0,0,0-4.67,1.32.73.73,0,0,1-.44.15c-2.07,0-3.44,1.39-3.68,3.73A15.52,15.52,0,0,0,31.53,17Z" style="fill:#cda1a7;"/><path d="M61,46.75v4.67a2,2,0,0,1-2,2H11V46.75a11,11,0,0,1,5.32-9.42l10-6.06c2.55,3.21,5.91,5.5,9.63,5.5s7.08-2.29,9.63-5.5l10,6.06A11,11,0,0,1,61,46.75Z" style="fill:#ed7899;"/><path d="M51,49.75v8.67H1V49.75a11,11,0,0,1,5.32-9.42l10-6.06c2.55,3.21,5.91,5.5,9.63,5.5s7.08-2.29,9.63-5.5l10,6.06A11,11,0,0,1,51,49.75Z" style="fill:#c2cde7;"/><path d="M36.28,39.86,26,45,15.72,39.86a3,3,0,0,1-.78-4.8L15,35H37l.06.06A3,3,0,0,1,36.28,39.86Z" style="fill:#d6dff2;"/><path d="M47,54H5a4,4,0,0,0-4,4H1a1,1,0,0,0,1,1H50a1,1,0,0,0,1-1h0A4,4,0,0,0,47,54Z" style="fill:#acb7d0;"/><path d="M13.07,26.13h0c-.31,0-1.31-.82-1.83-2.77s-.05-3.27.19-3.33c0,0,1.9-.33,1.92-.71a12.86,12.86,0,0,1,.18-1.63,6.09,6.09,0,0,0-.08-1.73,22.42,22.42,0,0,1-.13-5.44c.34-3.38,2.32-5.39,5.31-5.39a1.06,1.06,0,0,0,.63-.21A12.77,12.77,0,0,1,26,3h1.06c6.42,0,11,3.28,12.95,9.07-.73-.08-.49.43-1,.93s-1.78.7-1.3,2a12.8,12.8,0,0,1,1,4.31c0,.38,1.9-.29,1.92-.29.26.09.72,2.37.19,4.33s-1.52,2.77-1.83,2.77a1.09,1.09,0,0,0-1,.76c-1.78,6-6.44,12.05-11.92,12.05S15.86,32.87,14.08,26.88A1.06,1.06,0,0,0,13.07,26.13Z" style="fill:#faefde;"/><path d="M13.45,16A7.47,7.47,0,0,0,20,11c3,1,4,4,18,3,1.39-.1,1.6.39,2,0s-.72-2,0-1.93C38.11,6.28,33.47,3,27.06,3H26a12.77,12.77,0,0,0-6.75,1.9,1.06,1.06,0,0,1-.63.21c-3,0-5,2-5.31,5.39a22.42,22.42,0,0,0,.13,5.44Z" style="fill:#cda1a7;"/><path d="M56,47v2a1,1,0,0,0,2,0V47a1,1,0,0,0-2,0Z" style="fill:#8d6c9f;"/><path d="M57,38.21,46.87,31.67a17.2,17.2,0,0,0,2.71-5.06,4.52,4.52,0,0,0,2.19-3.08,5.83,5.83,0,0,0,.14-2.61A2.26,2.26,0,0,0,50.4,19l-.17,0a11.44,11.44,0,0,0-.55-2.08,4.13,4.13,0,0,1,.54.18A1,1,0,0,0,51.59,16,10.84,10.84,0,0,0,40.42,7h-.75A10,10,0,0,0,38.48,7,14.36,14.36,0,0,0,27,2H26a14.59,14.59,0,0,0-7.31,2C15,4.14,12.42,6.76,12,10.9a23,23,0,0,0,.13,5.6,7.14,7.14,0,0,1,.09,1q0,.28-.09.56a1.94,1.94,0,0,0-.44.06,2.67,2.67,0,0,0-1.78,2.26,7.49,7.49,0,0,0,.18,3.34c.54,2,1.66,3.5,2.88,4a23.11,23.11,0,0,0,2.72,5.6L6.49,38.67A13,13,0,0,0,0,49.92V57a3,3,0,0,0,3,3H49a3,3,0,0,0,3-3V54h7a3,3,0,0,0,3-3V47.44A11,11,0,0,0,57,38.21ZM13.77,25.88h0c-.29,0-1.24-.78-1.73-2.62a5.55,5.55,0,0,1-.15-2.42c.11-.56.31-.72.33-.73a.6.6,0,0,1,.27.12A1,1,0,0,0,14,19.43a12.13,12.13,0,0,1,.17-1.54,5.69,5.69,0,0,0-.08-1.64A21.23,21.23,0,0,1,14,11.1C14.31,7.91,16.19,6,19,6a1,1,0,0,0,.6-.2A12.08,12.08,0,0,1,26,4h1c6.07,0,10.45,3.1,12.25,8.58a2.3,2.3,0,0,0-1.9.48,2,2,0,0,0-.29,2.3,12.07,12.07,0,0,1,.9,4.07,1,1,0,0,0,1.54.79.66.66,0,0,1,.27-.12s.23.19.34.73A5.56,5.56,0,0,1,40,23.26c-.49,1.84-1.44,2.62-1.73,2.62h0a1,1,0,0,0-1,.72C35.59,32.26,31.18,38,26,38s-9.59-5.74-11.27-11.4A1,1,0,0,0,13.77,25.88ZM50,57a1,1,0,0,1-1,1H3a1,1,0,0,1-1-1V49.92A11,11,0,0,1,7.49,40.4l9.42-5.45C19.34,37.91,22.5,40,26,40s6.66-2.09,9.09-5.06l9.42,5.45A11,11,0,0,1,50,49.92Zm10-6a1,1,0,0,1-1,1H52V50a1,1,0,0,0,1-1V47a1,1,0,0,0-1-1,1,1,0,0,0-.56.19,13,13,0,0,0-5.93-7.52l-9.22-5.34A23.11,23.11,0,0,0,39,27.73c1.23-.46,2.35-2,2.88-4a7.49,7.49,0,0,0,.18-3.34,2.67,2.67,0,0,0-1.78-2.26,2,2,0,0,0-.43-.06,15.28,15.28,0,0,0-.92-3.44l0-.11a5.31,5.31,0,0,1,1.38.36,1,1,0,0,0,1.36-1.14A16.73,16.73,0,0,0,39.81,9h.6c4.27,0,7.4,2.12,8.77,5.88a1.75,1.75,0,0,0-1.23.44,1.72,1.72,0,0,0-.28,2,8.8,8.8,0,0,1,.66,3,1,1,0,0,0,1.52.8,3.28,3.28,0,0,1,0,2,2.88,2.88,0,0,1-1,1.77h0a1,1,0,0,0-1,.71,13.44,13.44,0,0,1-5.07,7.34,1,1,0,0,0,1.08,1.69,11,11,0,0,0,1.71-1.36,1,1,0,0,0,.12.12l10.22,6.61A9,9,0,0,1,60,47.44Z" style="fill:#8d6c9f;"/><path d="M21.92,12.88A21.11,21.11,0,0,0,31.11,15h2.55a1,1,0,0,0,0-2H31.11a19.11,19.11,0,0,1-8.32-1.92l-1.56-.76a2,2,0,0,0-2.55.7l-1.6,2.43a1,1,0,0,0,1.67,1.1l1.6-2.43Z" style="fill:#8d6c9f;"/><path d="M33.55,40.11,26,43.88l-7.55-3.78a1,1,0,0,0-.89,1.79l8,4a1,1,0,0,0,.89,0l8-4a1,1,0,1,0-.89-1.79Z" style="fill:#8d6c9f;"/><path d="M41,52a1,1,0,0,0-1,1v2a1,1,0,0,0,2,0V53A1,1,0,0,0,41,52Z" style="fill:#8d6c9f;"/><path d="M46,52a1,1,0,0,0-1,1v2a1,1,0,0,0,2,0V53A1,1,0,0,0,46,52Z" style="fill:#8d6c9f;"/><path d="M36,52a1,1,0,0,0-1,1v2a1,1,0,0,0,2,0V53A1,1,0,0,0,36,52Z" style="fill:#8d6c9f;"/><path d="M31,52a1,1,0,0,0-1,1v2a1,1,0,0,0,2,0V53A1,1,0,0,0,31,52Z" style="fill:#8d6c9f;"/><path d="M26,52a1,1,0,0,0-1,1v2a1,1,0,0,0,2,0V53A1,1,0,0,0,26,52Z" style="fill:#8d6c9f;"/><path d="M21,52a1,1,0,0,0-1,1v2a1,1,0,0,0,2,0V53A1,1,0,0,0,21,52Z" style="fill:#8d6c9f;"/><path d="M16,52a1,1,0,0,0-1,1v2a1,1,0,0,0,2,0V53A1,1,0,0,0,16,52Z" style="fill:#8d6c9f;"/><path d="M11,52a1,1,0,0,0-1,1v2a1,1,0,0,0,2,0V53A1,1,0,0,0,11,52Z" style="fill:#8d6c9f;"/><path d="M6,52a1,1,0,0,0-1,1v2a1,1,0,0,0,2,0V53A1,1,0,0,0,6,52Z" style="fill:#8d6c9f;"/></svg>
